<svg id="Capa_1" enable-background="new 0 0 512 512" height="512" viewBox="0 0 512 512" width="512" xmlns="http://www.w3.org/2000/svg"><g><path d="m120 203.5v30l60 60h-95.32l-47.18-30v-44.17l-14-7.39c-9.84-5.19-16-15.4-16-26.53v-11.91h82.5c16.57 0 30 13.43 30 30z" fill="#f02e0e"/><path d="m37.5 263.5h47.18v30h-47.18z" fill="#d40000"/><path d="m286 173.5v75h-90l60-75z" fill="#f02e0e"/><path d="m256 233.5v-60c-14.64 0-29.05 3.57-42 10.4l-94 49.6v60l15 15h257v-75z" fill="#ff5c1c"/><path d="m488.5 277.56s-14.212-7.5-30-15.832l16 61.772h30v-19.41c0-11.13-6.16-21.34-16-26.53z" fill="#ffa433"/><path d="m458.5 261.728c-19.696-10.394-41.93-22.128-41.93-22.128h-49.14l-82.43 43.5c-12.95 6.83-27.36 10.4-42 10.4h-123v30h354.5v-35.242c0-11.13-6.16-21.34-16-26.53z" fill="#ffc43b"/><path d="m392 233.5v105c28.995 0 52.5-23.505 52.5-52.5s-23.505-52.5-52.5-52.5z" fill="#343840"/><path d="m414.5 286c0-28.995-10.074-52.5-22.5-52.5-28.995 0-52.5 23.505-52.5 52.5s23.505 52.5 52.5 52.5c12.426 0 22.5-23.505 22.5-52.5z" fill="#41494e"/><circle cx="392" cy="286" fill="#c9f8ff" r="22.5"/><path d="m120 233.5v105c28.995 0 52.5-23.505 52.5-52.5s-23.505-52.5-52.5-52.5z" fill="#343840"/><path d="m142.5 286c0-28.995-10.074-52.5-22.5-52.5-28.995 0-52.5 23.505-52.5 52.5s23.505 52.5 52.5 52.5c12.426 0 22.5-23.505 22.5-52.5z" fill="#41494e"/><circle cx="120" cy="286" fill="#c9f8ff" r="22.5"/><path d="m392 256c-16.542 0-30 13.458-30 30s13.458 30 30 30 30-13.458 30-30-13.458-30-30-30zm0 45c-8.271 0-15-6.729-15-15s6.729-15 15-15 15 6.729 15 15-6.729 15-15 15z"/><path d="m120 256c-16.542 0-30 13.458-30 30s13.458 30 30 30 30-13.458 30-30-13.458-30-30-30zm0 45c-8.271 0-15-6.729-15-15s6.729-15 15-15 15 6.729 15 15-6.729 15-15 15z"/><path d="m492 270.924s-72.045-38.001-72.1-38.019c-8.342-4.4-17.832-6.905-27.9-6.905h-98.498v-52.5c0-4.142-3.357-7.5-7.5-7.5h-30c-15.797 0-31.531 3.896-45.502 11.268l-83 43.794v-17.562c0-20.678-16.822-37.5-37.5-37.5h-82.5c-4.143 0-7.5 3.358-7.5 7.5v11.909c0 13.948 7.663 26.657 20 33.167l10 5.276v69.648c0 4.142 3.357 7.5 7.5 7.5h24.399c6.677 25.849 30.195 45 58.101 45s51.424-19.151 58.101-45h64.897c15.795 0 31.528-3.896 45.5-11.268l47.418-25.022c-2.522 6.621-3.916 13.794-3.916 21.29 0 10.925 2.949 21.167 8.072 30h-146.598c-4.143 0-7.5 3.358-7.5 7.5s3.357 7.5 7.5 7.5h158.904c10.578 9.325 24.446 15 39.623 15s29.045-5.675 39.623-15h72.876c4.143 0 7.5-3.358 7.5-7.5v-19.409c0-13.948-7.663-26.657-20-33.167zm-213.498-44.924h-15v-45h15zm-251.502-20.691c-7.401-3.906-12-11.531-12-19.9v-4.409h75c12.406 0 22.5 10.093 22.5 22.5v22.985c-18.983 2.38-35.229 13.654-44.428 29.515h-23.072v-36.671c0-2.782-1.54-5.335-4-6.633zm18 80.691v-15h16.899c-1.239 4.796-1.899 9.822-1.899 15zm75 45c-24.813 0-45-20.187-45-45 0-24.809 20.181-44.994 44.989-45 24.836.012 45.011 20.194 45.011 45 0 24.813-20.187 45-45 45zm161.498-54.534c-11.821 6.237-25.135 9.534-38.5 9.534h-62.998c0-25.247-15.682-46.885-37.81-55.729l75.31-39.737c9.606-5.069 20.198-8.196 31.002-9.189v52.155c0 4.142 3.357 7.5 7.5 7.5h92.705zm110.502 54.534c-24.813 0-45-20.187-45-45s20.187-45 45-45 45 20.187 45 45-20.187 45-45 45zm105-15h-53.072c5.123-8.833 8.072-19.075 8.072-30 0-7.496-1.394-14.668-3.916-21.29l36.916 19.481c7.401 3.906 12 11.531 12 19.9z"/></g></svg>